<?xml version="1.0" encoding="UTF-8"?>
<svg width="146px" height="146px" viewBox="0 0 146 146" version="1.1" xmlns="http://www.w3.org/2000/svg" xmlns:xlink="http://www.w3.org/1999/xlink">
    <!-- Generator: Sketch 54.1 (76490) - https://sketchapp.com -->
    <title>icon1</title>
    <desc>Created with Sketch.</desc>
    <defs>
        <linearGradient x1="50%" y1="0%" x2="50%" y2="100%" id="linearGradient-1">
            <stop stop-color="#40BCF9" offset="0%"></stop>
            <stop stop-color="#1E87F0" offset="100%"></stop>
        </linearGradient>
        <rect id="path-2" x="0" y="0" width="86" height="86" rx="4"></rect>
        <filter x="-57.0%" y="-47.7%" width="214.0%" height="214.0%" filterUnits="objectBoundingBox" id="filter-4">
            <feOffset dx="0" dy="8" in="SourceAlpha" result="shadowOffsetOuter1"></feOffset>
            <feGaussianBlur stdDeviation="15" in="shadowOffsetOuter1" result="shadowBlurOuter1"></feGaussianBlur>
            <feColorMatrix values="0 0 0 0 0.117647059   0 0 0 0 0.529411765   0 0 0 0 0.941176471  0 0 0 0.2 0" type="matrix" in="shadowBlurOuter1"></feColorMatrix>
        </filter>
        <linearGradient x1="50%" y1="0%" x2="50%" y2="100%" id="linearGradient-5">
            <stop stop-color="#40BCF9" offset="0%"></stop>
            <stop stop-color="#1E87F0" stop-opacity="0" offset="100%"></stop>
        </linearGradient>
        <ellipse id="path-6" cx="74.4011439" cy="56.6269217" rx="35.4452065" ry="35.506494"></ellipse>
        <filter x="-69.1%" y="-57.7%" width="238.2%" height="238.0%" filterUnits="objectBoundingBox" id="filter-7">
            <feOffset dx="0" dy="8" in="SourceAlpha" result="shadowOffsetOuter1"></feOffset>
            <feGaussianBlur stdDeviation="15" in="shadowOffsetOuter1" result="shadowBlurOuter1"></feGaussianBlur>
            <feColorMatrix values="0 0 0 0 0.117647059   0 0 0 0 0.529411765   0 0 0 0 0.941176471  0 0 0 0.2 0" type="matrix" in="shadowBlurOuter1"></feColorMatrix>
        </filter>
        <linearGradient x1="50%" y1="0%" x2="50%" y2="100%" id="linearGradient-8">
            <stop stop-color="#40BCF9" offset="0%"></stop>
            <stop stop-color="#1E87F0" stop-opacity="0" offset="100%"></stop>
        </linearGradient>
        <ellipse id="path-9" cx="35.0734187" cy="34.5242306" rx="26.0999859" ry="25.8593914"></ellipse>
        <filter x="-93.9%" y="-79.3%" width="287.7%" height="289.5%" filterUnits="objectBoundingBox" id="filter-10">
            <feOffset dx="0" dy="8" in="SourceAlpha" result="shadowOffsetOuter1"></feOffset>
            <feGaussianBlur stdDeviation="15" in="shadowOffsetOuter1" result="shadowBlurOuter1"></feGaussianBlur>
            <feColorMatrix values="0 0 0 0 0.117647059   0 0 0 0 0.529411765   0 0 0 0 0.941176471  0 0 0 0.2 0" type="matrix" in="shadowBlurOuter1"></feColorMatrix>
        </filter>
    </defs>
    <g id="Page-1" stroke="none" stroke-width="1" fill="none" fill-rule="evenodd">
        <g id="科研homepage" transform="translate(-275.000000, -661.000000)">
            <g id="links" transform="translate(305.000000, 682.000000)">
                <g id="icon1" transform="translate(0.000000, 1.000000)">
                    <g>
                        <g id="Triangle-Pattern-blue">
                            <mask id="mask-3" fill="white">
                                <use xlink:href="#path-2"></use>
                            </mask>
                            <g id="Mask">
                                <use fill="black" fill-opacity="1" filter="url(#filter-4)" xlink:href="#path-2"></use>
                                <use fill="url(#linearGradient-1)" fill-rule="evenodd" xlink:href="#path-2"></use>
                            </g>
                            <g id="Triangle-Pattern" mask="url(#mask-3)">
                                <g transform="translate(66.279562, 70.627286) rotate(-371.000000) translate(-66.279562, -70.627286) translate(5.279562, 18.627286)">
                                    <g id="Oval-6" transform="translate(74.401144, 56.626922) rotate(-25.000000) translate(-74.401144, -56.626922) ">
                                        <use fill="black" fill-opacity="1" filter="url(#filter-7)" xlink:href="#path-6"></use>
                                        <use fill="url(#linearGradient-5)" fill-rule="evenodd" xlink:href="#path-6"></use>
                                    </g>
                                    <g id="Oval-6-Copy-3" transform="translate(35.073419, 34.524231) rotate(-25.000000) translate(-35.073419, -34.524231) ">
                                        <use fill="black" fill-opacity="1" filter="url(#filter-10)" xlink:href="#path-9"></use>
                                        <use fill="url(#linearGradient-8)" fill-rule="evenodd" xlink:href="#path-9"></use>
                                    </g>
                                </g>
                            </g>
                        </g>
                        <g id="icon" transform="translate(25.000000, 27.000000)" fill="#FFFFFF" fill-rule="nonzero">
                            <path d="M35.316709,23.1202649 L34.2812229,23.4425132 C34.3115792,23.6603086 34.3464326,23.8758817 34.3464326,24.1047891 C34.3464326,24.3303629 34.3082062,24.5514919 34.2756014,24.7659537 L35.3178333,25.0882021 L35.3178333,25.0882021 C35.8138843,25.2263876 36.1026694,25.7358517 35.9628548,26.2261171 C35.9594588,26.2380256 35.9558206,26.2498653 35.9519425,26.261629 L35.9519426,26.261629 C35.7700656,26.7583602 35.2225875,27.0232566 34.7140813,26.8605664 L33.6549848,26.5372068 C33.4346208,26.9294608 33.1602901,27.295046 32.84436,27.6161831 L33.4874632,28.4584735 L33.4874632,28.4584735 C33.6407659,28.656401 33.7046314,28.9080829 33.6639793,29.1540854 L33.6639793,29.1540855 C33.6217103,29.4004756 33.478546,29.6187481 33.2682235,29.7574677 L33.2682234,29.7574677 C32.8288551,30.060469 32.2263182,29.9700919 31.8976941,29.5518955 L31.2489693,28.7062715 L31.2489692,28.7062715 C30.8261633,28.904531 30.3790618,29.0475943 29.9189149,29.1318616 L29.9189149,30.1586114 C29.9189149,30.6719863 29.4793111,31.0909091 28.9362712,31.0909091 C28.3943555,31.0909091 27.9525032,30.6753199 27.9525032,30.1586114 L27.9525032,29.1318616 L27.9525026,29.1318615 C27.4929319,29.0467546 27.0463117,28.9037239 26.6235726,28.7062714 L25.9793451,29.5518955 L25.9793451,29.5518955 C25.6477928,29.9692834 25.0447444,30.0593706 24.6031942,29.7574677 L24.6031942,29.7574677 C24.1846571,29.4818037 24.0714676,28.9229973 24.3503845,28.5093353 C24.3620982,28.4919627 24.37442,28.474998 24.3873274,28.4584722 L25.0371764,27.6084034 L25.0371761,27.608403 C24.7104225,27.2923156 24.4276194,26.9347131 24.196195,26.5449836 L23.1652061,26.8627871 C22.6457766,27.0250224 22.0926179,26.7538894 21.9262206,26.2638497 L21.9262206,26.2638497 C21.7673203,25.7780048 22.0370069,25.2568341 22.5285818,25.0997867 C22.537622,25.0968985 22.5467063,25.0941466 22.5558314,25.091532 L23.5913174,24.7748397 C23.5632098,24.5537107 23.5283563,24.334804 23.5283563,24.108119 C23.5283563,23.8803228 23.5654584,23.6625274 23.5991876,23.4436208 L22.5558314,23.1224836 C22.0375262,22.9624707 21.7586982,22.4379838 21.9262198,21.9490553 C22.0914929,21.4601268 22.6457759,21.1923273 23.1652054,21.3490067 L24.2186803,21.6756998 L24.2186805,21.6756996 C24.4409562,21.2819732 24.7146331,20.9188362 25.0326782,20.5956121 L24.389575,19.7555441 L24.389575,19.7555441 C24.082182,19.3559075 24.1607812,18.7856495 24.5651312,18.4818402 C24.5783051,18.471942 24.5917468,18.4623971 24.6054418,18.4532157 L24.6054419,18.4532157 C25.0471502,18.1500599 25.6516195,18.2413336 25.9815928,18.6610103 L26.6258203,19.5066343 L26.6258201,19.5066344 C27.0487314,19.3071631 27.4962685,19.1633341 27.9569987,19.078822 L27.9569987,18.0542946 C27.9569987,17.5386973 28.3966025,17.1208857 28.9407667,17.1208857 C29.481558,17.1208857 29.9222861,17.5364749 29.9222861,18.0542946 L29.9222861,19.0777108 C30.3933704,19.1588285 30.8340985,19.3143967 31.2523404,19.5055232 L31.8999408,18.6598992 L31.8999408,18.6598992 C32.2302378,18.2432509 32.8313935,18.1522539 33.2727188,18.4521046 L33.2727188,18.4521046 C33.6933253,18.7313369 33.8052605,19.2946936 33.5227347,19.710394 C33.5125472,19.7253836 33.501909,19.740069 33.4908343,19.7544309 L32.8376123,20.6011661 C33.1591639,20.9256368 33.4537322,21.274554 33.6785934,21.6645856 L34.7140795,21.3490045 L34.7140796,21.3490044 C35.2228598,21.1870486 35.7700456,21.4522954 35.9519408,21.949053 C36.1194624,22.4357591 35.8350129,22.9613572 35.3167077,23.120259 L35.316709,23.1202649 Z M28.9396437,20.8467475 C27.0406904,20.8467475 25.4981422,22.3068657 25.4981422,24.1070115 C25.4981422,25.9071573 27.0395661,27.3661643 28.9396437,27.3661643 C30.8374727,27.3661643 32.3788967,25.9071573 32.3788967,24.1070115 C32.3788967,22.3068657 30.8408457,20.8467475 28.9396437,20.8467475 Z M13.0000006,20.6456863 C13.0000006,21.5568712 13.7442914,22.2935976 14.6639739,22.2935976 L18.6586341,22.2935976 L18.6586336,22.2936001 C18.9168769,21.125443 19.3795458,20.0108353 20.02579,19 L14.6639734,19 L14.6639733,19 C13.7449864,18.9999998 13,19.7363027 13,20.6445776 C13,20.6449482 13.0000001,20.6453187 13.0000004,20.6456892 L13.0000006,20.6456863 Z M18,4.99049453 C17.2073641,5.00493076 16.918561,3.75070111 16.918561,3.75070111 C16.918561,3.75070111 16.3654023,2.80568371 15.3670183,1.32208414 C14.3259107,-0.237027981 13.1139085,0.0150506891 13.1139085,0.0150506891 L2.86922963,0.0150506891 C0.0281076571,0.0150506891 0,2.71573494 0,2.71573494 L0,27.1162839 C0,30.1245707 2.2930791,29.9992589 2.2930791,29.9992589 L20.1554387,29.9992589 C19.7298185,29.3546815 19.3829796,28.7171572 19.1137434,27.9950164 L4.06602522,27.9950164 L3.79116095,27.9950164 C2.85354572,27.996248 2.0924501,26.9507777 2.09120282,26.024694 L2.09120985,3.73260972 C2.09120985,2.80313903 2.84899228,2.05467637 3.79116095,2.05467637 C8.01189058,2.05467637 10.5976919,2.05467637 11.5485649,2.05467637 C12.8484061,2.05467637 15.0592966,7.03672207 16.5241104,7.03672207 C19.2537437,7.03672207 23.7197711,7.03672207 29.9221925,7.03672207 C30.8643612,7.03672207 32.0207657,7.69394936 32.0207657,8.62342005 L32.0207657,14.0537228 L31.5277981,14.0537228 C32.2504074,14.2340125 33.5080566,14.5560513 34.1747667,14.8850896 L34.0452477,6.92889121 C34.0441234,4.40144164 31.2860709,4.99049453 31.2860709,4.99049453 C31.2860709,4.99049453 17.2579579,5.00493076 18,4.99049453 Z M14.8658142,11.947748 C13.9461317,11.947748 13.0023875,12.5471659 13.0023875,13.4572396 C13.0023875,14.3673133 14.0418044,14.9667312 14.9614869,14.9667312 L23.4551869,14.9667312 C24.7666824,14.13389 26.3964432,14.17031 27.9432673,13.9790688 C28.2645786,14.1315953 27.9432673,13.7628405 27.9432673,13.7317268 C27.9432673,12.8216531 26.8389751,11.947748 25.9181682,11.947748 L14.8658142,11.947748 Z M8.25063714,19.0023966 C7.41179837,19.0023966 6.97545326,19.6739703 6.97545326,20.5023966 C6.9754533,21.3308229 7.68152593,22.0023966 8.52036464,22.0023966 C9.35920334,21.9815635 10.0367912,21.3308229 10.0156957,20.5023966 C9.99534692,19.703272 9.32953036,19.0224893 8.52036464,19.0023966 L8.25063714,19.0023966 Z M7.01207006,13.4749175 C7.01155374,14.3033456 7.70135483,14.9743928 8.52978287,14.9749172 C9.35820947,14.9754409 10.0469707,14.3023974 10.0474951,13.4739694 C10.0480188,12.6455413 9.35821432,11.9754423 8.52978628,11.9749178 C7.70135823,11.9743942 7.01260186,12.6464895 7.01207006,13.4749175 Z" id="Shape"></path>
                        </g>
                    </g>
                </g>
            </g>
        </g>
    </g>
</svg>