<?xml version="1.0" encoding="UTF-8"?>
<svg width="126px" height="126px" viewBox="0 0 126 126" version="1.1" xmlns="http://www.w3.org/2000/svg" xmlns:xlink="http://www.w3.org/1999/xlink">
    <!-- Generator: Sketch 54.1 (76490) - https://sketchapp.com -->
    <title>icon4</title>
    <desc>Created with Sketch.</desc>
    <defs>
        <linearGradient x1="102.276828%" y1="110.411767%" x2="-3.96322544%" y2="-12.8224789%" id="linearGradient-1">
            <stop stop-color="#74BEFF" offset="0%"></stop>
            <stop stop-color="#DB9BFF" offset="100%"></stop>
        </linearGradient>
        <rect id="path-2" x="0" y="0" width="86" height="86" rx="4"></rect>
        <filter x="-38.4%" y="-31.4%" width="176.7%" height="176.7%" filterUnits="objectBoundingBox" id="filter-4">
            <feOffset dx="0" dy="6" in="SourceAlpha" result="shadowOffsetOuter1"></feOffset>
            <feGaussianBlur stdDeviation="10" in="shadowOffsetOuter1" result="shadowBlurOuter1"></feGaussianBlur>
            <feColorMatrix values="0 0 0 0 0.776470588   0 0 0 0 0.635294118   0 0 0 0 1  0 0 0 0.491531906 0" type="matrix" in="shadowBlurOuter1"></feColorMatrix>
        </filter>
        <linearGradient x1="50%" y1="1.0070448%" x2="50%" y2="96.703396%" id="linearGradient-5">
            <stop stop-color="#CBABFF" offset="0%"></stop>
            <stop stop-color="#B5C4FD" stop-opacity="0" offset="100%"></stop>
        </linearGradient>
        <ellipse id="path-6" cx="100.575057" cy="65.960255" rx="35.4452065" ry="35.506494"></ellipse>
        <filter x="-69.1%" y="-57.7%" width="238.2%" height="238.0%" filterUnits="objectBoundingBox" id="filter-7">
            <feOffset dx="0" dy="8" in="SourceAlpha" result="shadowOffsetOuter1"></feOffset>
            <feGaussianBlur stdDeviation="15" in="shadowOffsetOuter1" result="shadowBlurOuter1"></feGaussianBlur>
            <feColorMatrix values="0 0 0 0 0.117647059   0 0 0 0 0.529411765   0 0 0 0 0.941176471  0 0 0 0.2 0" type="matrix" in="shadowBlurOuter1"></feColorMatrix>
        </filter>
        <linearGradient x1="50%" y1="1.45637645%" x2="50%" y2="100%" id="linearGradient-8">
            <stop stop-color="#D7BEFD" offset="0%"></stop>
            <stop stop-color="#DBDCFF" stop-opacity="0" offset="100%"></stop>
        </linearGradient>
        <ellipse id="path-9" cx="47.3819444" cy="47.9907791" rx="35.4452065" ry="35.506494"></ellipse>
        <filter x="-69.1%" y="-57.7%" width="238.2%" height="238.0%" filterUnits="objectBoundingBox" id="filter-10">
            <feOffset dx="0" dy="8" in="SourceAlpha" result="shadowOffsetOuter1"></feOffset>
            <feGaussianBlur stdDeviation="15" in="shadowOffsetOuter1" result="shadowBlurOuter1"></feGaussianBlur>
            <feColorMatrix values="0 0 0 0 0.663682864   0 0 0 0 0.117647059   0 0 0 0 0.941176471  0 0 0 0.2 0" type="matrix" in="shadowBlurOuter1"></feColorMatrix>
        </filter>
    </defs>
    <g id="Page-1" stroke="none" stroke-width="1" fill="none" fill-rule="evenodd">
        <g id="科研homepage" transform="translate(-843.000000, -669.000000)">
            <g id="links" transform="translate(305.000000, 682.000000)">
                <g id="icon4" transform="translate(558.000000, 1.000000)">
                    <g>
                        <g id="Triangle-Pattern-">
                            <mask id="mask-3" fill="white">
                                <use xlink:href="#path-2"></use>
                            </mask>
                            <g id="Mask">
                                <use fill="black" fill-opacity="1" filter="url(#filter-4)" xlink:href="#path-2"></use>
                                <use fill="url(#linearGradient-1)" fill-rule="evenodd" xlink:href="#path-2"></use>
                            </g>
                            <g id="Triangle-Pattern" mask="url(#mask-3)">
                                <g transform="translate(52.654812, 68.857161) rotate(-371.000000) translate(-52.654812, -68.857161) translate(-21.483119, 11.857161)">
                                    <g id="Oval-6" transform="translate(100.575057, 65.960255) rotate(-25.000000) translate(-100.575057, -65.960255) ">
                                        <use fill="black" fill-opacity="1" filter="url(#filter-7)" xlink:href="#path-6"></use>
                                        <use fill="url(#linearGradient-5)" fill-rule="evenodd" xlink:href="#path-6"></use>
                                    </g>
                                    <g id="Oval-6-Copy-3" transform="translate(47.381944, 47.990779) rotate(-25.000000) translate(-47.381944, -47.990779) ">
                                        <use fill="black" fill-opacity="1" filter="url(#filter-10)" xlink:href="#path-9"></use>
                                        <use fill="url(#linearGradient-8)" fill-rule="evenodd" xlink:href="#path-9"></use>
                                    </g>
                                </g>
                            </g>
                        </g>
                        <g id="Group" transform="translate(27.000000, 25.000000)" fill="#FFFFFF">
                            <path d="M16.6947711,29.9205362 L4.24322856,29.9205362 C3.15744004,29.9205362 1.96586469,29.0347089 1.96586469,27.9448311 L1.96586469,4.25541787 C1.96586469,3.16554007 3.15744004,2.01281499 4.24322856,2.01281499 L27.4386519,2.01281499 C28.5244404,2.01281499 30.0107347,3.16554007 30.0107347,4.25541787 L30.0107347,18.7115463 C30.0107347,19.3405871 30.3667966,19.8663201 30.9934772,19.8663201 C31.6201578,19.8663201 32,19.3405871 32,18.7115463 L32,4.25541787 C32,1.92055633 29.7647529,0.0155105949 27.4386519,0.0155105949 L4.24322856,0.0155105949 C1.91712754,0.0155105949 0.0192296512,1.92055633 0.0192296512,4.25541787 L0.0192296512,27.9448311 C0.0192296512,30.2841734 1.91712754,32.185083 4.24322856,32.185083 L16.6947711,32.185083 C17.3217951,32.185083 17.8248565,31.6797823 17.8248565,31.0507415 C17.8248565,30.4258369 17.3217951,29.9205362 16.6947711,29.9205362 Z" id="Path"></path>
                            <path d="M27.1076272,17.8119318 L26.9094153,9.00899214 L18.032262,9.00899214 C17.4100523,9.00706652 16.9040961,9.2125206 16.9021766,9.83707366 C16.9021766,10.4661145 17.4055814,10.9710705 18.032262,10.9710705 L23.2318223,10.9710705 L16.0595058,18.1311058 L12.0116642,13.9663387 C11.8000547,13.7489674 11.5112366,13.6246507 11.208483,13.6206248 C10.908363,13.616144 10.6168278,13.7360926 10.4049582,13.9528962 L3.43111922,20.944383 C2.9898674,21.3872967 2.9898674,22.1052649 3.43111922,22.5481785 C3.65191682,22.7698077 3.93864465,22.8804499 4.2301799,22.8804499 C4.52171515,22.8804499 4.80844298,22.7698077 5.02924058,22.5481785 L11.1909702,16.3677235 L15.2384684,20.5324906 C15.4500781,20.7498619 15.7388961,20.8741787 16.0416498,20.8782045 C16.3417697,20.8826854 16.6333049,20.7627368 16.8451745,20.5500693 L24.8474565,12.5662491 L24.8474565,17.8122769 C24.8474565,18.4323561 25.3508613,18.9459291 25.9775419,18.9459291 C26.6042224,18.9459286 27.1076272,18.4409726 27.1076272,17.8119318 Z" id="Path"></path>
                        </g>
                        <g id="icon" transform="translate(46.000000, 45.000000)" fill="#FFFFFF">
                            <path d="M14.0074604,7.06913223 L12.9478933,7.39887469 C12.9789555,7.62173512 13.0146196,7.84232146 13.0146196,8.07655231 C13.0146196,8.30737204 12.9755042,8.53364359 12.942141,8.75309289 L14.0086109,9.08283535 C14.516198,9.22423447 14.811699,9.74554665 14.668633,10.2472136 C14.6651579,10.259399 14.6614351,10.271514 14.6574669,10.2835513 C14.4713603,10.7918343 13.9111501,11.0628912 13.3908182,10.8964174 L12.3070916,10.5655379 C12.0816028,10.9669141 11.8008923,11.3410012 11.477615,11.6696067 L12.1356741,12.5314852 C12.2925419,12.7340157 12.3578927,12.9915506 12.3162952,13.2432742 C12.2730432,13.4953943 12.1265495,13.7187429 11.9113357,13.8606885 C11.4617495,14.1707364 10.8452002,14.0782575 10.5089336,13.6503356 L9.84512222,12.7850459 C9.41248345,12.9879161 8.95498427,13.1343065 8.48413624,13.2205334 L8.48413624,14.2711612 C8.48413624,14.796475 8.03430914,15.2251402 7.47864037,15.2251402 C6.92412205,15.2251402 6.47199404,14.7998861 6.47199404,14.2711612 L6.47199404,13.2205334 C6.00173505,13.1334472 5.5447284,12.9870902 5.1121581,12.7850459 L4.45294856,13.6503356 C4.11368575,14.0774302 3.49661299,14.1696124 3.04479417,13.8606885 C2.6165237,13.5786138 2.50070185,13.0068119 2.78610513,12.5835299 C2.79809131,12.5657532 2.81069963,12.548394 2.82390722,12.5314839 L3.48886902,11.661646 C3.15451612,11.3382074 2.86513622,10.9722885 2.62832986,10.5734955 L1.57336452,10.8986898 C1.04185526,11.0646981 0.475832411,10.7872596 0.305565376,10.2858236 C0.142969708,9.78868003 0.418928136,9.2553891 0.921934923,9.09468939 C0.931185428,9.09173405 0.940480944,9.08891819 0.949818235,9.08624273 L2.00938539,8.76218548 C1.98062407,8.53591392 1.94496003,8.31191646 1.94496003,8.07995969 C1.94496003,7.84686587 1.98292498,7.62400545 2.01743856,7.40000798 L0.949818235,7.07140256 C0.41945943,6.90766837 0.1341471,6.37098408 0.305564588,5.87068517 C0.474681171,5.37038626 1.04185447,5.0963589 1.57336373,5.25668196 L2.65133814,5.59097259 C2.87878318,5.18808959 3.15882464,4.81650749 3.48426621,4.48576656 L2.82620713,3.62616206 C2.51166537,3.21723165 2.59209246,2.63371185 3.00584603,2.32283719 C3.01932621,2.3127088 3.03308052,2.30294189 3.04709408,2.29354704 C3.49907477,1.98334104 4.11760141,2.0767374 4.45524856,2.50617402 L5.1144581,3.37146373 C5.54720432,3.16735361 6.0051493,3.02017974 6.47659413,2.9337023 L6.47659413,1.88534866 C6.47659413,1.35776072 6.92642123,0.930232558 7.48324045,0.930232558 C8.03660832,0.930232558 8.48758587,1.35548663 8.48758587,1.88534866 L8.48758587,2.93256525 C8.96962565,3.01556939 9.42060321,3.17475541 9.8485717,3.3703268 L10.5112326,2.50503709 C10.8492109,2.07869926 11.4643469,1.9855861 11.9159356,2.29241004 C12.3463237,2.57813614 12.460862,3.15459419 12.1717658,3.57996197 C12.1613415,3.59530015 12.1504558,3.61032713 12.1391236,3.62502298 L11.4707104,4.49144974 C11.7997399,4.82346629 12.1011586,5.18049778 12.3312492,5.57959987 L13.3908164,5.25667966 C13.9114287,5.09095742 14.4713398,5.36237277 14.6574651,5.87068287 C14.8288826,6.36870769 14.537818,6.90652902 14.0074592,7.06912617 Z M7.37209302,10.9767442 C8.99041578,10.9767442 10.3023256,9.66483438 10.3023256,8.04651163 C10.3023256,6.42818887 8.99041578,5.11627907 7.37209302,5.11627907 C5.75377027,5.11627907 4.44186047,6.42818887 4.44186047,8.04651163 C4.44186047,9.66483438 5.75377027,10.9767442 7.37209302,10.9767442 Z" id="Combined-Shape"></path>
                        </g>
                    </g>
                </g>
            </g>
        </g>
    </g>
</svg>