<?xml version="1.0" encoding="UTF-8"?>
<svg width="146px" height="146px" viewBox="0 0 146 146" version="1.1" xmlns="http://www.w3.org/2000/svg" xmlns:xlink="http://www.w3.org/1999/xlink">
    <!-- Generator: Sketch 54.1 (76490) - https://sketchapp.com -->
    <title>icon2</title>
    <desc>Created with Sketch.</desc>
    <defs>
        <linearGradient x1="100%" y1="50%" x2="2.86082009%" y2="50%" id="linearGradient-1">
            <stop stop-color="#F9D423" offset="0%"></stop>
            <stop stop-color="#F88500" offset="100%"></stop>
        </linearGradient>
        <rect id="path-2" x="0" y="0" width="86" height="86" rx="4"></rect>
        <filter x="-57.0%" y="-47.7%" width="214.0%" height="214.0%" filterUnits="objectBoundingBox" id="filter-4">
            <feOffset dx="0" dy="8" in="SourceAlpha" result="shadowOffsetOuter1"></feOffset>
            <feGaussianBlur stdDeviation="15" in="shadowOffsetOuter1" result="shadowBlurOuter1"></feGaussianBlur>
            <feColorMatrix values="0 0 0 0 1   0 0 0 0 0.786419701   0 0 0 0 0.435310133  0 0 0 0.388898324 0" type="matrix" in="shadowBlurOuter1"></feColorMatrix>
        </filter>
        <linearGradient x1="100%" y1="50%" x2="2.54244942%" y2="50%" id="linearGradient-5">
            <stop stop-color="#F9D423" offset="0%"></stop>
            <stop stop-color="#F89700" offset="100%"></stop>
        </linearGradient>
        <linearGradient x1="100%" y1="50%" x2="0%" y2="50%" id="linearGradient-6">
            <stop stop-color="#F9D423" offset="0%"></stop>
            <stop stop-color="#F83600" offset="100%"></stop>
        </linearGradient>
    </defs>
    <g id="Page-1" stroke="none" stroke-width="1" fill="none" fill-rule="evenodd">
        <g id="科研homepage" transform="translate(-461.000000, -661.000000)">
            <g id="links" transform="translate(305.000000, 682.000000)">
                <g id="icon2" transform="translate(186.000000, 1.000000)">
                    <g>
                        <g id="Triangle-Pattern-orange">
                            <mask id="mask-3" fill="white">
                                <use xlink:href="#path-2"></use>
                            </mask>
                            <g id="Mask" opacity="0.839999974">
                                <use fill="black" fill-opacity="1" filter="url(#filter-4)" xlink:href="#path-2"></use>
                                <use fill="url(#linearGradient-1)" fill-rule="evenodd" xlink:href="#path-2"></use>
                            </g>
                            <g id="Triangle-Pattern" mask="url(#mask-3)">
                                <g transform="translate(58.138894, 71.045074) rotate(-371.000000) translate(-58.138894, -71.045074) translate(-1.665704, 6.045074)">
                                    <ellipse id="Oval-6" fill="url(#linearGradient-5)" opacity="0.839999974" transform="translate(68.335572, 77.886772) rotate(-25.000000) translate(-68.335572, -77.886772) " cx="68.3355718" cy="77.886772" rx="38.7014443" ry="38.6914385"></ellipse>
                                    <ellipse id="Oval-6-Copy-3" fill="url(#linearGradient-6)" opacity="0.200000003" transform="translate(51.496651, 51.901208) rotate(-25.000000) translate(-51.496651, -51.901208) " cx="51.4966509" cy="51.9012085" rx="38.7014443" ry="38.6914385"></ellipse>
                                </g>
                            </g>
                        </g>
                        <g id="人员管理" transform="translate(26.000000, 26.000000)" fill="#FFFFFF" fill-rule="nonzero">
                            <path d="M2.22773668,22.3142162 L1.88451273,22.3142162 L1.88451273,16.8344405 C1.88451273,16.5623952 1.9298442,16.3551226 1.96869974,16.2320545 L2.7263828,16.0766001 C4.41012293,15.7462594 6.15862229,15.3964869 7.0522871,14.1852376 C7.31132404,13.8419423 7.41493882,13.3302381 7.41493882,12.436375 C7.41493882,12.002398 7.23361296,11.5878528 6.90981678,11.3093303 C5.91252455,10.4219444 5.23255257,8.81558178 5.21960073,7.31932637 C5.20017296,5.51864565 5.31026366,3.54954329 6.26222442,2.59092016 C6.74144277,2.11160227 7.44731844,1.87194333 8.41870697,1.87194333 C10.0053082,1.87194333 10.8212746,2.48728386 11.2486856,3.99001022 L13.0554683,3.47830598 C12.394924,1.1723983 10.8342265,0 8.4122184,0 C6.93570783,-1.12362702e-16 5.75708974,0.427499739 4.92170192,1.27602195 C4.26115771,1.94318063 3.82727083,2.84352099 3.58118574,4.02886118 C3.39985988,4.90329246 3.32214879,5.95908727 3.33510064,7.34523544 C3.35452841,9.30784788 4.21582625,11.3481749 5.53043873,12.5983067 C5.52396281,12.9092156 5.49805912,13.0646701 5.48510727,13.13592 C4.98646115,13.7188742 3.64594497,13.9844423 2.35723618,14.243533 C2.02696408,14.3083057 1.68374013,14.3795557 1.3469921,14.4508056 C0.531025733,14.6321691 0,15.5648958 0,16.8344405 L0,22.2494435 C0,22.670466 0.0259036943,23.0137613 0.135994395,23.3181929 C0.336748026,23.8622835 0.809490447,24.1926242 1.39232357,24.1926242 L2.22124179,24.1926242 L2.22124179,22.3142162 L2.22773668,22.3142162 Z M16.5978111,17.5598946 C16.5654315,18.9201211 16.8503721,19.3217117 16.9539869,19.4706889 L16.9669387,19.4901207 C17.9448032,20.8179608 19.8422488,21.2130742 21.6749478,21.5952331 C22.3031124,21.7247784 22.4909142,21.666483 23.0737473,21.834892 C23.6306768,21.472165 23.9609489,20.8503472 23.9609489,20.1896657 L23.9609489,20.1443249 C23.0802232,19.9370523 22.8535659,19.930575 22.0505514,19.762166 C20.5999445,19.4577344 19.1040062,19.1468255 18.521173,18.4408032 C18.4952694,18.3306896 18.4693657,18.0845534 18.4693657,17.7218263 C19.9523522,16.3292136 20.897837,14.0232995 20.897837,11.8080926 C20.897837,10.0074119 20.7942222,7.95411768 20.0106355,6.37367043 C19.1493376,4.63776239 17.6080678,3.75685384 15.4321449,3.75685384 C13.8261158,3.75685384 12.5503589,4.22321719 11.6437296,5.13651209 C10.924902,5.86196619 10.4392078,6.85946558 10.1736949,8.16787388 C9.97294128,9.14594146 9.88875427,10.3183271 9.90170612,11.8664007 C9.92113389,14.0621948 10.8795706,16.3357161 12.3431293,17.7089098 C12.3366534,18.149364 12.3042738,18.3436821 12.284846,18.4149321 C11.7214406,19.1144771 10.2125505,19.4189087 8.7489854,19.7103858 C6.74792502,20.1119765 4.68211804,20.5265217 3.61359065,22.0551571 C2.50620772,23.6356107 2.10470046,26.9325278 1.95575422,29.4133408 C1.92985052,29.853795 2.09174861,30.2748175 2.3896411,30.5922037 C2.68753358,30.9031126 3.10199269,31.0844761 3.53587957,31.0844761 L18.2554961,31.0844761 L17.1223672,29.2060682 L4.30947274,29.2060682 C4.50375045,26.2848199 4.52672117,24.0242531 5.15488576,23.1304027 C5.79600219,22.2171078 7.48621825,21.8802898 9.12461426,21.5499491 C10.9702525,21.1807448 12.8806499,20.7985859 13.839074,19.4772231 C14.1110628,19.1080188 14.2276294,18.5574509 14.2276294,17.5793834 C14.2276294,17.1389291 14.0398276,16.7179066 13.7225074,16.413475 L13.7095555,16.4005204 C12.569793,15.3965438 11.7991581,13.5634767 11.7862062,11.8534651 C11.7667784,9.80664818 11.889821,7.56550053 12.9842521,6.45791287 C13.5347056,5.90086776 14.3377201,5.63529974 15.4386271,5.63529974 C18.0937558,5.63529974 19.0327647,7.24813966 19.0327647,11.8081242 C19.0262888,13.537555 18.2621298,15.3835892 17.1223672,16.4134687 C16.7985647,16.7048951 16.604287,17.1323949 16.5978111,17.5598946 Z M29.0704273,16.8344405 C29.0704273,16.6271679 28.837294,16.3486454 28.7013059,16.2708992 C28.4552208,16.2126037 28.2026598,16.1607856 27.9695266,16.1283992 C26.2793105,15.7786267 24.6732815,15.448286 23.7601763,14.2046504 C23.5011393,13.8613552 23.3975245,13.3496509 23.3975245,12.4557879 C23.3975245,12.0218108 23.5788504,11.6137429 23.9026466,11.3287431 C24.8934629,10.4413509 25.5734349,8.83498828 25.5928626,7.3387392 C25.6122904,5.53805848 25.5021997,3.56896877 24.5502389,2.61033299 C24.0710206,2.12453783 23.3651449,1.89135616 22.3937564,1.89135616 C20.8071551,1.89135616 19.9911887,2.50669669 19.5637778,4.00942305 L17.7569951,3.49771881 C18.4045875,1.18534651 19.965285,0.012960863 22.3872805,0.012960863 C23.8702606,0.012960863 25.0424028,0.446937871 25.8777969,1.28898281 C26.5383411,1.94966423 26.972228,2.85648185 27.2183131,4.04182204 C27.399639,4.91625965 27.4773501,5.97205446 27.4643982,7.35171271 C27.4449704,9.31434412 26.5836726,11.3546711 25.2690601,12.604784 C25.275536,12.9156929 25.3014397,13.0711474 25.3143916,13.1423973 C25.8259895,13.7642151 26.9981317,14.0038741 28.3451238,14.2823966 C28.6106367,14.3342148 28.8826255,14.3925102 29.1546143,14.4508056 C29.9058214,14.6127373 30.9484451,15.5972822 30.9484451,16.8344405 L30.9484451,19.3694316 L29.0704273,19.3694316 L29.0704273,16.8344405 Z M33.6763503,27.5943548 C33.7067065,27.8121502 33.74156,28.0277232 33.74156,28.2566307 C33.74156,28.4822045 33.7033336,28.7033335 33.6707287,28.9177953 L34.7129607,29.2400436 C35.2090116,29.3782291 35.4977967,29.8876933 35.3579822,30.3779587 C35.3545862,30.3898672 35.350948,30.4017069 35.3470699,30.4134706 C35.165193,30.9102017 34.6177149,31.1750982 34.1092087,31.0124079 L33.0501122,30.6890484 C32.8297482,31.0813024 32.5554174,31.4468876 32.2394874,31.7680247 L32.8825906,32.6103151 C33.0358932,32.8082426 33.0997588,33.0599245 33.0591067,33.305927 C33.0168377,33.5523172 32.8736734,33.7705897 32.6633508,33.9093093 C32.2239824,34.2123106 31.6214456,34.1219334 31.2928214,33.7037371 L30.6440967,32.858113 C30.2212906,33.0563726 29.7741892,33.1994359 29.3140422,33.2837031 L29.3140422,34.310453 C29.3140422,34.8238279 28.8744385,35.2427507 28.3313985,35.2427507 C27.7894829,35.2427507 27.3476305,34.8271615 27.3476305,34.310453 L27.3476305,33.2837031 C26.8880593,33.1985961 26.4414391,33.0555655 26.0187,32.858113 L25.3744725,33.703737 C25.0429202,34.121125 24.4398718,34.2112122 23.9983216,33.9093092 C23.5797845,33.6336453 23.466595,33.0748389 23.7455118,32.6611769 C23.7572256,32.6438042 23.7695474,32.6268396 23.7824548,32.6103138 L24.4323038,31.7602449 C24.1055498,31.4441572 23.8227468,31.0865546 23.5913224,30.6968252 L22.5603335,31.0146287 C22.040904,31.176864 21.4877453,30.905731 21.321348,30.4156913 C21.1624477,29.9298464 21.4321343,29.4086757 21.9237091,29.2516283 C21.9327494,29.2487401 21.9418336,29.2459882 21.9509587,29.2433736 L22.9864448,28.9266813 C22.9583372,28.7055522 22.9234837,28.4866456 22.9234837,28.2599606 C22.9234837,28.0321644 22.9605858,27.814369 22.994315,27.5954623 L21.9509587,27.2743252 C21.4326535,27.1143123 21.1538256,26.5898254 21.3213472,26.1008969 C21.4866202,25.6119684 22.0409032,25.3441689 22.5603327,25.5008483 L23.6138077,25.8275414 C23.8360836,25.4338148 24.1097604,25.0706778 24.4278056,24.7474537 L23.7847024,23.9073857 C23.4773093,23.5077491 23.5559085,22.9374911 23.9602586,22.6336818 C23.9734324,22.6237836 23.9868741,22.6142387 24.0005692,22.6050573 C24.4422776,22.3019015 25.0467468,22.3931752 25.3767202,22.8128519 L26.0209477,23.6584759 C26.4438588,23.4590047 26.8913959,23.3151757 27.3521261,23.2306636 L27.3521261,22.2061362 C27.3521261,21.6905389 27.7917298,21.2727273 28.3358941,21.2727273 C28.8766854,21.2727273 29.3174135,21.6883165 29.3174135,22.2061362 L29.3174135,23.2295524 C29.7884978,23.3106701 30.2292259,23.4662382 30.6474678,23.6573648 L31.2950682,22.8117408 C31.6253652,22.3950925 32.2265208,22.3040955 32.6678462,22.6039462 C33.0884527,22.8831785 33.2003879,23.4465352 32.917862,23.8622356 C32.9076746,23.8772251 32.8970364,23.8919106 32.8859617,23.9062725 L32.2327397,24.7530077 C32.5542913,25.0774784 32.8488596,25.4263956 33.0737208,25.8164271 L34.1092069,25.500846 C34.6179871,25.3388902 35.165173,25.604137 35.3470682,26.1008946 C35.5145898,26.5876007 35.2301403,27.1131988 34.7118351,27.2721006 L33.6763503,27.5943548 Z M28.2272727,31.0909091 C29.8088154,31.0909091 31.0909091,29.8088154 31.0909091,28.2272727 C31.0909091,26.64573 29.8088154,25.3636364 28.2272727,25.3636364 C26.64573,25.3636364 25.3636364,26.64573 25.3636364,28.2272727 C25.3636364,29.8088154 26.64573,31.0909091 28.2272727,31.0909091 Z" id="Shape"></path>
                        </g>
                    </g>
                </g>
            </g>
        </g>
    </g>
</svg>