<?xml version="1.0" encoding="UTF-8"?>
<svg width="146px" height="146px" viewBox="0 0 146 146" version="1.1" xmlns="http://www.w3.org/2000/svg" xmlns:xlink="http://www.w3.org/1999/xlink">
    <!-- Generator: Sketch 54.1 (76490) - https://sketchapp.com -->
    <title>icon3</title>
    <desc>Created with Sketch.</desc>
    <defs>
        <linearGradient x1="50%" y1="130.651573%" x2="50%" y2="0%" id="linearGradient-1">
            <stop stop-color="#009EFD" offset="0%"></stop>
            <stop stop-color="#2AF598" offset="100%"></stop>
        </linearGradient>
        <rect id="path-2" x="0" y="0" width="86" height="86" rx="4"></rect>
        <filter x="-57.0%" y="-47.7%" width="214.0%" height="214.0%" filterUnits="objectBoundingBox" id="filter-4">
            <feOffset dx="0" dy="8" in="SourceAlpha" result="shadowOffsetOuter1"></feOffset>
            <feGaussianBlur stdDeviation="15" in="shadowOffsetOuter1" result="shadowBlurOuter1"></feGaussianBlur>
            <feColorMatrix values="0 0 0 0 0.277496696   0 0 0 0 0.893839836   0 0 0 0 0.75986737  0 0 0 0.351251132 0" type="matrix" in="shadowBlurOuter1"></feColorMatrix>
        </filter>
        <linearGradient x1="50%" y1="130.651573%" x2="50%" y2="0%" id="linearGradient-5">
            <stop stop-color="#009EFD" offset="0%"></stop>
            <stop stop-color="#2AF598" offset="100%"></stop>
        </linearGradient>
        <linearGradient x1="50%" y1="130.651573%" x2="50%" y2="0%" id="linearGradient-6">
            <stop stop-color="#009EFD" offset="0%"></stop>
            <stop stop-color="#2AF598" offset="100%"></stop>
        </linearGradient>
    </defs>
    <g id="Page-1" stroke="none" stroke-width="1" fill="none" fill-rule="evenodd">
        <g id="科研homepage" transform="translate(-647.000000, -660.000000)">
            <g id="links" transform="translate(305.000000, 682.000000)">
                <g id="icon3" transform="translate(372.000000, 0.000000)">
                    <g>
                        <g id="Triangle-Pattern-green">
                            <mask id="mask-3" fill="white">
                                <use xlink:href="#path-2"></use>
                            </mask>
                            <g id="Mask">
                                <use fill="black" fill-opacity="1" filter="url(#filter-4)" xlink:href="#path-2"></use>
                                <use fill="url(#linearGradient-1)" fill-rule="evenodd" xlink:href="#path-2"></use>
                            </g>
                            <g id="Triangle-Pattern" mask="url(#mask-3)" fill="url(#linearGradient-6)">
                                <g transform="translate(68.035319, 49.086241) rotate(-371.000000) translate(-68.035319, -49.086241) translate(13.035319, -24.413759)">
                                    <ellipse id="Oval-6" transform="translate(62.560564, 98.938033) rotate(-25.000000) translate(-62.560564, -98.938033) " cx="62.5605642" cy="98.9380328" rx="35.4452065" ry="35.506494"></ellipse>
                                    <ellipse id="Oval-6-Copy-3" opacity="0.300000012" transform="translate(47.211016, 47.435711) rotate(-25.000000) translate(-47.211016, -47.435711) " cx="47.2110157" cy="47.4357112" rx="35.4452065" ry="35.506494"></ellipse>
                                </g>
                            </g>
                        </g>
                        <g id="icon" transform="translate(25.000000, 25.000000)" fill="#FFFFFF" fill-rule="nonzero">
                            <path d="M34.8425796,0.00544920703 L29.0573771,0.00544920703 L29.0573771,2.25544437 L33.6851665,2.25544437 L33.6851665,25.8768076 L33.6851666,25.8768077 C32.6763659,25.1443991 31.4614055,24.7505445 30.2147693,24.7518101 L5.78520251,24.7518101 C4.53420349,24.7518101 3.31560444,25.1478093 2.31480522,25.8768077 L2.31480522,5.62864425 C2.31480522,3.76564826 3.86820401,2.2554515 5.78520251,2.2554515 L6.9426016,2.2554515 L6.9426016,0.00545634553 L5.78520251,0.00545634553 C2.592005,0.00545634553 0,2.52365093 0,5.62865128 L0,30.3750121 C0,31.8690089 0.610199523,33.2982058 1.69379868,34.3530035 C2.77919783,35.4078013 4.24979668,36 5.78520954,36 L34.8426009,36 C35.4816004,36 36,35.4960011 36,34.8750024 L36,1.13048908 L36,1.13049035 C35.9911181,0.500287797 35.4730363,-0.00339471266 34.8428329,0.0054892526 C34.8427563,0.00549033286 34.8426796,0.00549142084 34.842603,0.00549251654 L34.8425796,0.00544920703 Z M33.6851806,33.7499625 L5.78520236,33.7499625 C3.86820386,33.7499625 2.31480507,32.2379658 2.31480507,30.3749698 C2.31480507,28.5119738 3.86820386,27.0017771 5.78520236,27.0017771 L30.2147692,27.0017771 L30.2147691,27.0017771 C31.6663449,26.9946002 32.9686966,27.8925255 33.4781665,29.2517722 L12.2147691,29.2517722 L12.2147691,31.5017674 L33.6851664,31.5017674 L33.6851806,33.7517625 L33.6851806,33.7499625 Z M5.78520236,29.2499722 L9.89999211,29.2499722 L9.89999211,31.4999674 L5.78520236,31.4999674 L5.78520236,29.2499722 Z M14.5277815,14.9885888 L14.5277815,16.8785848 C14.5277815,17.4995834 15.0461811,18.0017824 15.6851806,18.0017824 L15.6851806,20.2517775 L20.3147629,20.2517775 L20.3147629,18.0017824 C20.9537624,18.0017824 21.472162,17.4977834 21.472162,16.8785848 L21.472162,14.9885888 C24.8939593,13.4099922 26.7335719,9.73618608 25.9019515,6.14519381 C25.0703521,2.55240857 21.7871617,0 17.9999577,0 C14.2127536,0 10.9295491,2.55239451 10.0979638,6.14519381 C9.26636448,9.73618608 11.105963,13.4099711 14.5277533,14.9885888 L14.5277815,14.9885888 Z M17.9999787,2.25540921 C20.8133766,2.2590092 23.2163887,4.23000496 23.6933884,6.92639916 C24.170388,9.62099336 22.5827892,12.2598017 19.9313913,13.1777998 L19.9313913,13.1777998 C19.4741706,13.328495 19.1631892,13.7530181 19.1573919,14.2343975 L19.1573919,15.7535942 L16.8425937,15.7535942 L16.8425937,14.2343975 L16.8425937,14.2343976 C16.8367953,13.7530182 16.5258151,13.3284968 16.0685943,13.1777999 C13.4171964,12.2598019 11.8295976,9.62101458 12.3065973,6.92639928 C12.7835969,4.23000508 15.186595,2.25899526 18.0000069,2.25540933 L17.9999787,2.25540921 Z M16.8425797,11.2535969 C18.1205787,11.2535969 19.1573778,10.2455991 19.1573778,9.00360172 L19.1573778,7.87860414 L21.472176,7.87860414 L21.472176,5.62860898 L14.5259744,5.62860898 L14.5259744,7.87860414 L16.8407726,7.87860414 L16.8407726,11.2535969 L16.8425797,11.2535969 Z" id="Shape"></path>
                        </g>
                    </g>
                </g>
            </g>
        </g>
    </g>
</svg>