<?xml version="1.0" encoding="UTF-8"?>
<svg width="126px" height="126px" viewBox="0 0 126 126" version="1.1" xmlns="http://www.w3.org/2000/svg" xmlns:xlink="http://www.w3.org/1999/xlink">
    <!-- Generator: Sketch 54.1 (76490) - https://sketchapp.com -->
    <title>icon5</title>
    <desc>Created with Sketch.</desc>
    <defs>
        <linearGradient x1="104.742189%" y1="157.139917%" x2="15.2174152%" y2="-22.2316448%" id="linearGradient-1">
            <stop stop-color="#F64848" offset="0%"></stop>
            <stop stop-color="#FFAA95" offset="100%"></stop>
        </linearGradient>
        <rect id="path-2" x="0" y="0" width="86" height="86" rx="4"></rect>
        <filter x="-38.4%" y="-31.4%" width="176.7%" height="176.7%" filterUnits="objectBoundingBox" id="filter-4">
            <feOffset dx="0" dy="6" in="SourceAlpha" result="shadowOffsetOuter1"></feOffset>
            <feGaussianBlur stdDeviation="10" in="shadowOffsetOuter1" result="shadowBlurOuter1"></feGaussianBlur>
            <feColorMatrix values="0 0 0 0 1   0 0 0 0 0.211764706   0 0 0 0 0.466666667  0 0 0 0.214652535 0" type="matrix" in="shadowBlurOuter1"></feColorMatrix>
        </filter>
        <linearGradient x1="50%" y1="2.88282855%" x2="50%" y2="97.3130419%" id="linearGradient-5">
            <stop stop-color="#FEA180" offset="0%"></stop>
            <stop stop-color="#FFC2A5" stop-opacity="0" offset="100%"></stop>
        </linearGradient>
        <ellipse id="path-6" cx="62.5605642" cy="98.9380328" rx="35.4452065" ry="35.506494"></ellipse>
        <filter x="-69.1%" y="-57.7%" width="238.2%" height="238.0%" filterUnits="objectBoundingBox" id="filter-7">
            <feOffset dx="0" dy="8" in="SourceAlpha" result="shadowOffsetOuter1"></feOffset>
            <feGaussianBlur stdDeviation="15" in="shadowOffsetOuter1" result="shadowBlurOuter1"></feGaussianBlur>
            <feColorMatrix values="0 0 0 0 1   0 0 0 0 0.364705882   0 0 0 0 0.149019608  0 0 0 1 0" type="matrix" in="shadowBlurOuter1"></feColorMatrix>
        </filter>
        <linearGradient x1="50%" y1="0%" x2="50%" y2="98.3200867%" id="linearGradient-8">
            <stop stop-color="#FCB374" offset="4.14333454%"></stop>
            <stop stop-color="#FFB28C" stop-opacity="0" offset="100%"></stop>
        </linearGradient>
    </defs>
    <g id="Page-1" stroke="none" stroke-width="1" fill="none" fill-rule="evenodd">
        <g id="科研homepage" transform="translate(-1029.000000, -669.000000)">
            <g id="links" transform="translate(305.000000, 682.000000)">
                <g id="icon5" transform="translate(744.000000, 1.000000)">
                    <g>
                        <g id="Triangle-Pattern-red">
                            <mask id="mask-3" fill="white">
                                <use xlink:href="#path-2"></use>
                            </mask>
                            <g id="Mask">
                                <use fill="black" fill-opacity="1" filter="url(#filter-4)" xlink:href="#path-2"></use>
                                <use fill="url(#linearGradient-1)" fill-rule="evenodd" xlink:href="#path-2"></use>
                            </g>
                            <g id="Triangle-Pattern" mask="url(#mask-3)">
                                <g transform="translate(68.252448, 48.745766) scale(-1, 1) rotate(-371.000000) translate(-68.252448, -48.745766) translate(13.252448, -24.407387)">
                                    <g id="Oval-6" fill="none" transform="translate(62.560564, 98.938033) rotate(-25.000000) translate(-62.560564, -98.938033) ">
                                        <use fill="black" fill-opacity="1" filter="url(#filter-7)" xlink:href="#path-6"></use>
                                        <use fill="url(#linearGradient-5)" fill-rule="evenodd" xlink:href="#path-6"></use>
                                    </g>
                                    <ellipse id="Oval-6-Copy-3" fill="url(#linearGradient-8)" fill-rule="evenodd" transform="translate(47.211016, 47.435711) rotate(-25.000000) translate(-47.211016, -47.435711) " cx="47.2110157" cy="47.4357112" rx="35.4452065" ry="35.506494"></ellipse>
                                </g>
                            </g>
                        </g>
                        <g id="icon" transform="translate(26.000000, 23.000000)" fill="#FFFFFF" fill-rule="nonzero">
                            <g id="编组">
                                <path d="M26.1262603,2.5897861 L26.0551605,2.54868449 L26.0551606,2.54868453 C25.5183131,2.24480266 24.8339823,2.42497304 24.5212551,2.95252945 L23.9051216,3.99465245 L23.9051216,3.99465252 C23.5893566,4.52492579 23.7683431,5.20778033 24.3048998,5.51984932 C24.3098411,5.52272323 24.3148045,5.52555984 24.3197895,5.52835894 L24.3908893,5.56950867 L24.3908893,5.56950865 C24.9278293,5.8732317 25.6120968,5.69307914 25.9249896,5.16561561 L26.541123,4.12349261 C26.86078,3.58484021 26.6712942,2.89415037 26.1262118,2.58983486 L26.1262603,2.5897861 Z M8.84846944,4.19967914 L8.20292207,3.11664706 L8.2029221,3.11664711 C7.9006914,2.59780914 7.23010131,2.41934443 6.70511683,2.71803711 C6.70488496,2.71816903 6.70465313,2.71830104 6.70442135,2.71843314 L6.59796642,2.77710159 L6.59796637,2.77710162 C6.06486385,3.08066536 5.88170391,3.7538567 6.18886144,4.28071766 C6.18900367,4.28096162 6.18914599,4.28120552 6.18928841,4.28144937 L6.82884586,5.36448146 C7.1367665,5.87945472 7.80622483,6.06109108 8.32734752,5.76245472 L8.43404594,5.70402691 C8.9788848,5.40539055 9.16238077,4.73241194 8.84847021,4.19967932 L8.84846944,4.19967914 Z M20.8784608,33.9975507 L13.0954173,33.9975507 C12.5446372,33.9975507 12.0352508,34.3256627 11.9404835,34.8123491 L11.9404835,34.8123491 C11.825369,35.3544126 12.2239405,35.8772035 12.8307165,35.9800441 C12.9003783,35.9918504 12.9711392,35.9977112 13.0420427,35.9975474 L20.8488025,35.9975474 C21.3342778,35.9975474 21.8023192,35.7329521 21.9446649,35.3201801 C22.1817779,34.6323718 21.6130281,33.9975521 20.8785085,33.9975521 L20.8784608,33.9975507 Z M17.0164747,0.0258449198 L16.8980399,0.0258449198 L16.8980399,0.0258449198 C16.2838836,0.0250203754 15.7853327,0.516393048 15.7844999,1.12336364 C15.7844985,1.12435896 15.7844985,1.12535429 15.7844999,1.12634962 L15.7844999,2.35573999 L15.7844999,2.35576504 C15.7837064,2.96273082 16.2809373,3.45541103 16.8950936,3.45619553 C16.8960845,3.45619679 16.8970753,3.45619675 16.8980662,3.45619539 L17.016501,3.45619539 L17.016501,3.45619539 C17.6306573,3.45701992 18.1292082,2.96564727 18.1300409,2.35867668 C18.1300423,2.35769741 18.1300423,2.35671815 18.130041,2.35573888 L18.130041,1.12634851 L18.130041,1.12632513 C18.1308623,0.519359354 17.6336572,0.0266550756 17.0195009,0.0258465195 C17.0184938,0.0258451885 17.0174866,0.0258452097 17.0164795,0.025846583 L17.0164747,0.0258449198 Z M0.585696905,11.604754 L1.68725706,12.2252246 C2.22035958,12.5236203 2.89556434,12.3481925 3.20372847,11.8272513 L3.24536569,11.756984 L3.24536569,11.756984 C3.55660075,11.2327749 3.378915,10.5584631 2.84849333,10.2508749 C2.84260909,10.2474626 2.8366932,10.2441038 2.83074653,10.240799 L1.7348841,9.61440864 C1.20183028,9.31601291 0.52662552,9.49148885 0.21870488,10.0126225 L0.17706766,10.0828899 C-0.14288151,10.6153819 0.0406631506,11.2945209 0.585696805,11.6047081 L0.585696905,11.604754 Z M3.94139876,17.7519441 C3.94139876,22.9830693 6.61356436,27.1200394 10.8615032,29.4277196 L10.8615032,30.4449552 C10.8615032,31.3730935 11.6202935,32.1342353 12.5583798,32.1342353 L21.6042786,32.1342353 C22.5361264,32.1342353 23.3009587,31.3788638 23.3009587,30.4449552 L23.3009587,29.4277196 C27.3398827,27.2329514 30.0822758,22.9683567 30.0822758,18.0675619 C30.0644445,10.6447543 23.780785,4.53157423 16.2228463,5.00728175 C9.75059219,5.00728175 3.94139876,10.7870035 3.94139876,17.7519441 Z M21.820436,27.9429305 L20.9851593,28.3174652 L20.9851593,30.0105445 L13.049013,30.0105445 L13.049013,28.3174652 L12.0943221,27.9429305 C8.10791129,25.9817005 5.49586965,21.696738 6.11171092,16.8734118 C6.73383431,11.9854492 11.6520702,7.07857672 16.9595947,7.07857672 C23.5940866,7.07857672 27.8972788,11.8915508 27.8972788,18.272262 C27.8975223,22.5163155 25.4158465,26.1748877 21.820436,27.9429305 Z M32.1798739,9.61440642 L31.0900014,10.2233262 C30.5449677,10.5335615 30.3554819,11.2186203 30.6750901,11.7570321 L30.7047962,11.8097326 L30.7047962,11.8097325 C31.0176889,12.337224 31.7019954,12.5173828 32.2389451,12.2136256 L33.3285742,11.6047539 C33.8736078,11.2945186 34.0630937,10.6094598 33.7434854,10.071048 L33.7077894,10.0182994 C33.3998688,9.49735818 32.7189176,9.31576994 32.1798738,9.61440631 L32.1798739,9.61440642 Z M23.3957352,15.1578289 C23.3840476,15.2514866 23.4014816,15.3394171 23.4254413,15.4212353 L23.4196949,15.4212353 C23.4196949,15.4269144 23.4253926,15.4269144 23.4253926,15.4269144 C23.4491088,15.5382834 23.4964924,15.6376203 23.5675435,15.7196791 C23.6799884,15.9478075 23.9405741,16.3812995 23.9644363,16.3635401 C24.1066359,16.5214973 24.3135559,16.6151551 24.5449225,16.6151551 C24.9949941,16.6151551 25.361986,16.2462513 25.361986,15.7896578 C25.3562883,15.5614332 25.2553363,15.3798449 25.1904699,15.1632674 C25.0777815,14.8823422 24.6868299,14.4316203 24.6454362,14.4666096 C24.5326992,14.3789198 24.4025768,14.3084118 24.2604258,14.3084118 C23.8398168,14.303262 23.4431188,14.6895882 23.3957352,15.1578289 L23.3957352,15.1578289 Z M23.7747556,13.2145989 C23.7984231,12.9395936 23.6976659,12.6995775 23.5318962,12.5354599 L23.5375939,12.5297807 C22.2343246,10.9960749 20.4044783,9.88378075 17.9996001,9.43305882 C17.9996001,9.43897861 17.9936102,9.44460963 17.9936102,9.45057754 C17.9345389,9.43897861 17.8749319,9.42121925 17.8158606,9.42121925 C17.3538092,9.4268984 16.9688476,9.80172193 16.9628576,10.2583155 C16.9628576,10.5803904 17.1760597,10.837877 17.4779904,10.9608449 C17.472244,10.9667647 17.472244,10.9723957 17.472244,10.9842353 C19.5751428,11.3472193 21.0853808,12.3132032 22.2046672,13.6184439 C22.2226369,13.606893 22.6016087,14.0575668 22.9098215,14.0634866 C23.3423616,14.063246 23.7331184,13.6827914 23.7747069,13.2145989 L23.7747556,13.2145989 Z" id="形状"></path>
                            </g>
                        </g>
                    </g>
                </g>
            </g>
        </g>
    </g>
</svg>